<?xml version="1.0"?>
<svg xmlns="http://www.w3.org/2000/svg" id="Layer_1" enable-background="new 0 0 256 256" height="512px" viewBox="0 0 256 256" width="512px" class=""><g><path d="m190.78 75.488h-1.337c-1.048-21.157-18.533-37.988-39.949-37.988-4.614 0-9.041.791-13.165 2.228-5.106-17.743-21.449-30.728-40.835-30.728-23.472 0-42.5 19.028-42.5 42.5 0 1.664.106 3.303.292 4.917-23.298 3.043-41.292 22.955-41.292 47.083 0 26.234 21.266 47.5 47.5 47.5h131.286c20.852 0 37.756-16.904 37.756-37.756.001-20.852-16.903-37.756-37.756-37.756z" fill="#a4c9ff" data-original="#A4C9FF" class="" style="fill:#E3E3E3" data-old_color="#a4c9ff"/><path d="m190.78 153h-131.286c-27.294 0-49.5-22.206-49.5-49.5 0-24.121 17.546-44.757 41.122-48.778-.081-1.094-.122-2.171-.122-3.222 0-24.538 19.963-44.5 44.5-44.5 19.033 0 36.072 12.321 42.141 30.208 3.851-1.134 7.831-1.708 11.859-1.708 21.775 0 39.786 16.538 41.811 37.991 21.681.282 39.231 18.006 39.231 39.753 0 21.922-17.834 39.756-39.756 39.756zm-95.286-142c-22.332 0-40.5 18.168-40.5 40.5 0 1.509.094 3.086.278 4.688.126 1.085-.644 2.071-1.728 2.213-22.548 2.945-39.551 22.333-39.551 45.1 0 25.089 20.411 45.5 45.5 45.5h131.287c19.716 0 35.756-16.04 35.756-35.756s-16.04-35.757-35.756-35.757h-1.337c-1.066 0-1.944-.836-1.997-1.901-1.004-20.236-17.674-36.087-37.952-36.087-4.269 0-8.477.712-12.507 2.117-.519.181-1.089.14-1.577-.112-.488-.253-.851-.695-1.003-1.223-4.962-17.241-20.964-29.282-38.913-29.282z" fill="#3762cc" data-original="#3762CC" class="" style="fill:#FFFFFF" data-old_color="#3762cc"/><g fill="#e0ebfc"><path d="m192.622 174.334h-140.365c-2.761 0-5-2.239-5-5s2.239-5 5-5h140.364c4.5 0 8.8-1.849 11.796-5.073 2.874-3.093 4.287-7.11 3.979-11.313-.581-7.912-7.261-14.109-15.206-14.109-2.762 0-5-2.239-5-5s2.238-5 5-5c13.156 0 24.217 10.268 25.179 23.377.515 7.006-1.839 13.701-6.626 18.853-4.882 5.252-11.851 8.265-19.121 8.265z" data-original="#000000" class="active-path" style="fill:#BFBCBC" data-old_color="#000000"/><path d="m158.744 247c-7.547 0-14.558-3.403-19.234-9.337-1.71-2.169-1.337-5.313.832-7.022 2.167-1.709 5.313-1.338 7.021.832 2.769 3.512 6.917 5.527 11.381 5.527 7.545 0 13.887-5.885 14.438-13.396.293-3.989-1.049-7.803-3.777-10.739-2.846-3.063-6.931-4.82-11.208-4.82h-135.028c-2.761 0-5-2.239-5-5s2.239-5 5-5h135.028c7.047 0 13.802 2.92 18.534 8.012 4.642 4.995 6.923 11.486 6.424 18.279-.933 12.709-11.655 22.664-24.411 22.664z" data-original="#000000" class="active-path" style="fill:#BFBCBC" data-old_color="#000000"/><path d="m241.362 190.92h-175.567c-2.761 0-5-2.239-5-5s2.239-5 5-5h175.567c2.762 0 5 2.239 5 5s-2.238 5-5 5z" data-original="#000000" class="active-path" style="fill:#BFBCBC" data-old_color="#000000"/></g><path d="m214.872 238.888v-4.386l-.914 1.149c-.362.455-.904.716-1.485.716-.427 0-.846-.146-1.18-.413-.818-.651-.955-1.847-.304-2.666l3.884-4.882v-3.206l-1.547 1.513c-.503.491-1.167.765-1.869.771l-.299.003c-1.476 0-2.691-1.201-2.708-2.677l-.018-1.571-2.237 2.237-.706 6.198c-.109.959-.919 1.683-1.884 1.683-.071 0-.143-.004-.216-.012-1.039-.118-1.788-1.06-1.67-2.1l.166-1.459-3.101 3.101c-.358.359-.835.556-1.342.556s-.984-.198-1.341-.556c-.358-.358-.556-.835-.556-1.342s.198-.983.556-1.341l3.102-3.102-1.459.166c-.073.008-.145.012-.216.012-.965 0-1.775-.723-1.884-1.682-.057-.504.085-.999.4-1.396s.766-.647 1.27-.704l6.198-.706 2.301-2.3-1.745-.02c-1.225-.014-2.319-.754-2.787-1.885-.469-1.132-.218-2.428.638-3.303l1.143-1.169h-3.144l-4.882 3.883c-.334.266-.753.412-1.18.412-.582 0-1.123-.261-1.485-.716-.316-.397-.458-.892-.4-1.396.057-.503.307-.954.704-1.27l1.149-.914h-4.387c-1.046 0-1.897-.851-1.897-1.897s.851-1.897 1.897-1.897h4.387l-1.149-.914c-.819-.651-.955-1.847-.304-2.666.362-.455.903-.716 1.485-.716.427 0 .846.146 1.18.413l4.882 3.883h3.208l-1.175-1.202c-1.042-1.065-1.025-2.781.037-3.824l.197-.194c.501-.493 1.165-.769 1.868-.776l2.118-.024-2.189-2.189-6.198-.706c-.504-.057-.955-.307-1.27-.704s-.458-.892-.4-1.396c.109-.959.919-1.682 1.884-1.682.071 0 .143.004.216.012l1.459.166-3.102-3.102c-.739-.74-.739-1.943 0-2.683.358-.358.835-.556 1.342-.556s.984.197 1.341.556l3.102 3.102-.166-1.459c-.057-.503.085-.999.4-1.396s.766-.647 1.27-.704c.073-.008.145-.012.216-.012.964 0 1.774.723 1.884 1.682l.706 6.198 2.189 2.189.024-2.118c.008-.703.284-1.366.777-1.867l.193-.196c.512-.521 1.198-.808 1.931-.808.713 0 1.385.274 1.893.77l1.201 1.175v-3.208l-3.884-4.882c-.651-.819-.515-2.014.304-2.665.334-.266.754-.413 1.18-.413.582 0 1.123.261 1.486.716l.914 1.149v-4.386c0-1.046.851-1.897 1.897-1.897s1.897.851 1.897 1.897v4.386l.914-1.149c.362-.455.903-.716 1.485-.716.427 0 .846.146 1.181.413.819.651.955 1.847.304 2.666l-3.884 4.882v3.144l1.137-1.111c.508-.497 1.18-.771 1.893-.771.733 0 1.419.287 1.931.808l.193.196c.492.501.768 1.164.777 1.868l.024 2.182 2.254-2.254.706-6.197c.109-.96.918-1.683 1.884-1.683.071 0 .143.004.216.012 1.039.118 1.788 1.06 1.67 2.1l-.166 1.459 3.102-3.102c.358-.358.835-.556 1.342-.556s.984.197 1.341.555c.358.358.556.835.556 1.342s-.198.983-.556 1.341l-3.102 3.102 1.459-.166c.072-.008.145-.012.216-.012.965 0 1.775.723 1.884 1.682.057.503-.085.999-.4 1.396s-.766.647-1.27.704l-6.198.706-2.189 2.189 1.841.02c1.086.011 2.06.674 2.48 1.687.413.996.192 2.137-.562 2.907l-1.374 1.405h3.205l4.882-3.883c.334-.266.754-.413 1.18-.413.582 0 1.123.261 1.485.716.651.819.515 2.014-.304 2.666l-1.149.914h4.387c1.046 0 1.897.851 1.897 1.897s-.851 1.897-1.897 1.897h-4.387l1.149.914c.396.315.646.766.704 1.27s-.085.999-.4 1.396c-.362.455-.904.716-1.485.716-.427 0-.846-.146-1.18-.412l-4.882-3.883h-3.143l1.45 1.482c.491.503.765 1.167.77 1.869l.002.276c.013 1.489-1.189 2.714-2.677 2.731l-1.635.018 2.301 2.301 6.198.706c1.039.118 1.788 1.06 1.67 2.1-.109.959-.919 1.682-1.884 1.682-.071 0-.143-.004-.216-.012l-1.459-.166 3.102 3.102c.74.74.74 1.943 0 2.683-.358.358-.835.556-1.342.556s-.984-.198-1.341-.556l-3.102-3.102.166 1.459c.057.504-.085.999-.4 1.396-.316.396-.766.646-1.27.704-.073.008-.145.012-.216.012-.965 0-1.775-.723-1.884-1.682l-.706-6.198-2.301-2.301-.018 1.635c-.017 1.476-1.232 2.677-2.731 2.677l-.275-.002c-.703-.006-1.367-.28-1.87-.772l-1.481-1.448v3.143l3.883 4.882c.651.819.515 2.014-.304 2.666-.334.266-.754.412-1.18.412-.582 0-1.123-.261-1.485-.716l-.914-1.149v4.386c0 1.046-.851 1.897-1.897 1.897-1.049.001-1.901-.85-1.901-1.896zm0-18.994v-3.097l-2.688 2.688.034 3.004s2.645-2.585 2.654-2.595zm6.419-.472-2.624-2.624v3.16l2.589 2.532zm-9.101-5.307h-3.821l-2.526 2.583s3.702.042 3.721.043zm14.851 2.589-2.532-2.59h-3.159l2.624 2.624zm-14.851-6.383-2.267-2.267-3.667.041s2.167 2.216 2.176 2.226zm12.257 0c.009-.01 2.184-2.233 2.184-2.233l-3.015-.033-2.267 2.267h3.098zm-3.577-4.887c-.001-.019-.043-3.73-.043-3.73l-2.161 2.113v3.821zm-5.998-1.554c-.01-.009-2.226-2.176-2.226-2.176l-.041 3.667 2.267 2.267z" fill="#a4c9ff" data-original="#A4C9FF" class="" style="fill:#E3E3E3" data-old_color="#a4c9ff"/><path d="m36.971 207.359v-4.386l-.914 1.149c-.362.455-.904.716-1.485.716-.427 0-.846-.146-1.18-.413-.818-.651-.955-1.847-.304-2.666l3.884-4.882v-3.206l-1.547 1.512c-.503.491-1.167.765-1.869.771l-.299.003c-1.476 0-2.691-1.201-2.708-2.677l-.018-1.571-2.237 2.237-.706 6.198c-.109.959-.919 1.683-1.884 1.683-.071 0-.143-.004-.216-.012-1.039-.118-1.788-1.06-1.67-2.1l.166-1.459-3.101 3.101c-.358.359-.835.556-1.342.556s-.984-.198-1.341-.556c-.358-.358-.556-.835-.556-1.342s.198-.983.556-1.341l3.102-3.102-1.459.166c-.073.008-.145.012-.216.012-.965 0-1.775-.723-1.884-1.682-.057-.504.085-.999.4-1.396s.766-.647 1.27-.704l6.198-.706 2.301-2.3-1.745-.02c-1.225-.014-2.319-.754-2.787-1.885-.469-1.132-.218-2.428.638-3.303l1.143-1.169h-3.144l-4.882 3.883c-.334.266-.753.412-1.18.412-.582 0-1.123-.261-1.485-.716-.315-.397-.458-.892-.4-1.396.057-.503.307-.954.704-1.27l1.149-.914h-4.387c-1.046 0-1.897-.851-1.897-1.897s.851-1.897 1.897-1.897h4.387l-1.149-.914c-.819-.651-.955-1.847-.304-2.666.362-.455.903-.716 1.485-.716.427 0 .846.146 1.18.413l4.882 3.883h3.208l-1.175-1.202c-1.042-1.065-1.025-2.781.037-3.824l.197-.194c.501-.493 1.165-.769 1.868-.777l2.118-.024-2.189-2.189-6.198-.706c-.504-.057-.955-.307-1.27-.704s-.458-.892-.4-1.396c.109-.959.919-1.682 1.884-1.682.071 0 .143.004.216.012l1.459.166-3.102-3.102c-.739-.74-.739-1.943 0-2.683.358-.358.835-.556 1.342-.556s.984.197 1.341.556l3.102 3.102-.166-1.459c-.057-.503.085-.999.4-1.396s.766-.647 1.27-.704c.073-.008.145-.012.216-.012.964 0 1.774.723 1.884 1.682l.706 6.198 2.189 2.189.024-2.118c.008-.703.284-1.366.777-1.867l.193-.196c.512-.521 1.198-.808 1.931-.808.713 0 1.385.274 1.893.77l1.201 1.175v-3.208l-3.884-4.882c-.651-.819-.515-2.014.304-2.665.334-.266.754-.413 1.18-.413.582 0 1.123.261 1.486.716l.914 1.149v-4.386c0-1.046.851-1.897 1.897-1.897s1.897.851 1.897 1.897v4.386l.914-1.149c.362-.455.903-.716 1.485-.716.427 0 .846.146 1.181.413.819.651.955 1.847.304 2.666l-3.884 4.882v3.144l1.137-1.111c.508-.497 1.18-.771 1.893-.771.733 0 1.419.287 1.931.808l.193.196c.492.501.768 1.164.777 1.868l.024 2.182 2.254-2.254.706-6.197c.109-.96.918-1.683 1.884-1.683.071 0 .143.004.216.012 1.039.118 1.788 1.06 1.67 2.1l-.166 1.459 3.102-3.102c.358-.358.835-.556 1.342-.556s.984.197 1.341.555c.358.358.556.835.556 1.342s-.198.983-.556 1.341l-3.102 3.102 1.459-.166c.072-.008.145-.012.216-.012.965 0 1.775.723 1.884 1.682.057.503-.085.999-.4 1.396s-.766.647-1.27.704l-6.198.706-2.189 2.189 1.841.02c1.086.011 2.06.674 2.48 1.687.413.996.192 2.137-.562 2.907l-1.374 1.405h3.205l4.882-3.883c.334-.266.754-.413 1.18-.413.582 0 1.123.261 1.485.716.651.819.515 2.014-.304 2.666l-1.149.914h4.387c1.046 0 1.897.851 1.897 1.897s-.851 1.897-1.897 1.897h-4.387l1.149.914c.396.315.646.766.704 1.27s-.085.999-.4 1.396c-.362.455-.904.716-1.485.716-.427 0-.846-.146-1.18-.412l-4.882-3.883h-3.143l1.45 1.482c.491.503.765 1.167.77 1.869l.002.276c.013 1.489-1.189 2.714-2.677 2.731l-1.635.018 2.301 2.301 6.198.706c1.039.118 1.788 1.06 1.67 2.1-.109.959-.919 1.682-1.884 1.682-.071 0-.143-.004-.216-.012l-1.459-.166 3.102 3.102c.74.74.74 1.943 0 2.683-.358.358-.835.556-1.342.556s-.984-.198-1.341-.556l-3.102-3.102.166 1.459c.057.504-.085.999-.4 1.396-.315.396-.766.646-1.27.704-.073.008-.145.012-.216.012-.965 0-1.775-.723-1.884-1.682l-.706-6.198-2.301-2.301-.018 1.635c-.017 1.476-1.232 2.677-2.731 2.677l-.276-.002c-.703-.006-1.367-.28-1.87-.772l-1.481-1.448v3.143l3.883 4.882c.651.819.515 2.014-.304 2.666-.334.266-.754.412-1.18.412-.582 0-1.123-.261-1.485-.716l-.914-1.149v4.386c0 1.046-.851 1.897-1.897 1.897-1.049.004-1.9-.847-1.9-1.894zm0-18.993v-3.097l-2.688 2.688.034 3.004s2.645-2.586 2.654-2.595zm6.418-.473-2.624-2.624v3.16l2.589 2.532zm-9.101-5.307h-3.821l-2.526 2.583s3.702.042 3.721.043zm14.852 2.59-2.532-2.59h-3.159l2.624 2.624zm-14.852-6.384-2.267-2.267-3.667.041s2.167 2.216 2.176 2.226zm12.257 0c.009-.01 2.184-2.233 2.184-2.233l-3.015-.033-2.267 2.267h3.098zm-3.576-4.886c-.001-.019-.043-3.73-.043-3.73l-2.161 2.113v3.821zm-5.998-1.555c-.01-.009-2.226-2.176-2.226-2.176l-.041 3.667 2.267 2.267z" fill="#a4c9ff" data-original="#A4C9FF" class="" style="fill:#E3E3E3" data-old_color="#a4c9ff"/></g> </svg>
