<?xml version="1.0"?>
<svg xmlns="http://www.w3.org/2000/svg" id="Layer_2" enable-background="new 0 0 64 64" height="512px" viewBox="0 0 64 64" width="512px" class=""><g><circle cx="44" cy="20" fill="#ffe352" r="18" data-original="#FFE352" class="" style="fill:#FFF2B1" data-old_color="#ffe352"/><path d="m53.623 26.328c-1.696-8.18-8.941-14.328-17.623-14.328-5.87 0-11.068 2.823-14.354 7.171-.531-.111-1.082-.171-1.646-.171-3.392 0-6.285 2.115-7.448 5.096-5.943.716-10.552 5.768-10.552 11.904 0 6.627 5.373 12 12 12h37c6.075 0 11-4.925 11-11 0-5.169-3.571-9.494-8.377-10.672z" fill="#edeff1" data-original="#EDEFF1" class="" style="fill:#FFFFFF" data-old_color="#edeff1"/><g fill="#80d6fb"><path d="m19 59c0 1.657-1.343 3-3 3s-3-1.343-3-3 3-7 3-7 3 5.343 3 7z" data-original="#000000" class="active-path" style="fill:#D6E7FF" data-old_color="#000000"/><path d="m35 59c0 1.657-1.343 3-3 3s-3-1.343-3-3 3-7 3-7 3 5.343 3 7z" data-original="#000000" class="active-path" style="fill:#D6E7FF" data-old_color="#000000"/><path d="m51 59c0 1.657-1.343 3-3 3s-3-1.343-3-3 3-7 3-7 3 5.343 3 7z" data-original="#000000" class="active-path" style="fill:#D6E7FF" data-old_color="#000000"/></g></g> </svg>
