<?xml version="1.0"?>
<svg xmlns="http://www.w3.org/2000/svg" height="512px" viewBox="-20 0 512 512.00163" width="512px" class=""><g><path d="m427.496094 380.496094c-2.921875.625-5.105469-2.660156-3.347656-5.078125 23.789062-32.765625 34.175781-60.875 23.976562-71.070313-5.476562-5.476562-16.121094-5.015625-29.878906.273438-2.945313 1.132812-5.625-2.183594-3.886719-4.820313 23.511719-35.722656 32.734375-65.304687 21.203125-76.832031-6.953125-6.953125-20.472656-6.359375-37.945312.367188-2.929688 1.125-5.621094-2.105469-3.945313-4.761719 26.101563-41.429688 35.796875-75.308594 22.191406-88.917969-9.46875-9.46875-28.761719-7.644531-53.582031 3.132812-2.902344 1.261719-5.699219-1.976562-4.058594-4.683593 32.542969-53.847657 43.402344-99.085938 24.011719-118.476563-32.332031-32.332031-136.484375 19.40625-232.632813 115.550782-96.148437 96.148437-147.882812 200.304687-115.550781 232.632812 17.613281 17.617188 56.558594 10.269531 103.90625-15.617188 2.8125-1.535156 5.898438 1.5 4.445313 4.355469-15.460938 30.375-19.519532 54.289063-8.617188 65.1875 11.996094 11.996094 39.753906 5.878907 74.550782-13.628906 2.777343-1.558594 5.890624 1.382813 4.523437 4.257813-10.59375 22.328124-12.953125 39.785156-4.714844 48.023437 9.789063 9.789063 32.609375 4.609375 61.148438-11.582031 2.8125-1.59375 5.96875 1.410156 4.523437 4.300781-9.476562 18.910156-11.878906 33.769531-5.050781 40.597656 7.308594 7.308594 23.820313 4.042969 44.652344-7.15625 2.792969-1.5 5.859375 1.480469 4.449219 4.324219-6.570313 13.207031-8.210938 23.582031-3.425782 28.367188 10.402344 10.402343 47.1875-9.519532 82.160156-44.492188 34.976563-34.976562 54.894532-71.757812 44.496094-82.160156-2.804687-2.800782-7.519531-3.398438-13.601562-2.09375zm0 0" fill="#b9acac" data-original="#B9ACAC" class="active-path" style="fill:#F9F9F9" data-old_color="#b9acac"/><g fill="#9e9797"><path d="m427.496094 380.496094c-2.921875.625-5.105469-2.660156-3.347656-5.078125 23.789062-32.765625 34.175781-60.875 23.976562-71.070313-5.476562-5.476562-16.121094-5.015625-29.878906.273438-2.945313 1.132812-5.625-2.183594-3.886719-4.820313 23.515625-35.722656 32.734375-65.304687 21.203125-76.832031-6.953125-6.953125-20.472656-6.359375-37.945312.367188-2.929688 1.125-5.621094-2.105469-3.945313-4.761719 26.101563-41.429688 35.796875-75.308594 22.191406-88.917969-9.46875-9.46875-28.761719-7.644531-53.582031 3.132812-2.902344 1.261719-5.699219-1.972656-4.058594-4.683593 32.542969-53.847657 43.402344-99.085938 24.011719-118.476563-18.667969-18.667968-61.285156-9.304687-112.480469 20.453125 22.550782-5.644531 40.347656-3.945312 50.730469 6.4375 19.390625 19.394531 8.53125 64.632813-24.011719 118.480469-1.640625 2.707031 1.15625 5.941406 4.058594 4.679688 24.820312-10.777344 44.113281-12.597657 53.582031-3.128907 13.605469 13.605469 3.910157 47.488281-22.191406 88.914063-1.675781 2.65625 1.015625 5.886718 3.945313 4.761718 17.472656-6.722656 30.992187-7.320312 37.945312-.367187 11.53125 11.53125 2.308594 41.109375-21.203125 76.832031-1.734375 2.636719.941406 5.953125 3.886719 4.820313 13.757812-5.285157 24.402344-5.75 29.878906-.273438 10.199219 10.199219-.1875 38.304688-23.976562 71.070313-1.757813 2.421875.425781 5.707031 3.347656 5.078125 6.082031-1.300781 10.800781-.707031 13.601562 2.09375 10.398438 10.402343-9.519531 47.1875-44.496094 82.160156-6.605468 6.605469-13.273437 12.671875-19.820312 18.101563 11.121094 9.175781 47.210938-10.632813 81.570312-44.992188 34.976563-34.976562 54.894532-71.757812 44.496094-82.160156-2.804687-2.800782-7.519531-3.398438-13.601562-2.09375zm0 0" data-original="#000000" class="" style="fill:#CFCFCF" data-old_color="#000000"/><path d="m258.296875 112.574219c-8.214844-8.214844-41.433594 11.679687-74.195313 44.4375-32.757812 32.761719-52.652343 65.980469-44.4375 74.195312 8.214844 8.214844 41.433594-11.679687 74.195313-44.4375 32.757813-32.761719 52.652344-65.980469 44.4375-74.195312zm0 0" data-original="#000000" class="" style="fill:#CFCFCF" data-old_color="#000000"/><path d="m289.691406 243.027344c0 5.503906-4.464844 9.96875-9.96875 9.96875-5.507812 0-9.96875-4.464844-9.96875-9.96875s4.460938-9.96875 9.96875-9.96875c5.503906 0 9.96875 4.464844 9.96875 9.96875zm0 0" data-original="#000000" class="" style="fill:#CFCFCF" data-old_color="#000000"/><path d="m280.191406 291.183594c0 5.507812-4.460937 9.96875-9.96875 9.96875-5.503906 0-9.96875-4.460938-9.96875-9.96875 0-5.503906 4.464844-9.96875 9.96875-9.96875 5.507813 0 9.96875 4.464844 9.96875 9.96875zm0 0" data-original="#000000" class="" style="fill:#CFCFCF" data-old_color="#000000"/><path d="m449.917969 83.492188c0 5.503906-4.464844 9.96875-9.96875 9.96875-5.507813 0-9.96875-4.464844-9.96875-9.96875 0-5.503907 4.460937-9.96875 9.96875-9.96875 5.503906 0 9.96875 4.464843 9.96875 9.96875zm0 0" data-original="#000000" class="" style="fill:#CFCFCF" data-old_color="#000000"/><path d="m19.9375 215.035156c0 5.503906-4.460938 9.96875-9.96875 9.96875-5.503906 0-9.96875-4.464844-9.96875-9.96875 0-5.507812 4.464844-9.972656 9.96875-9.972656 5.507812 0 9.96875 4.464844 9.96875 9.972656zm0 0" data-original="#000000" class="" style="fill:#CFCFCF" data-old_color="#000000"/><path d="m471.972656 465.042969c0 5.503906-4.464844 9.96875-9.972656 9.96875-5.503906 0-9.96875-4.464844-9.96875-9.96875 0-5.507813 4.464844-9.972657 9.96875-9.972657 5.507812 0 9.972656 4.464844 9.972656 9.972657zm0 0" data-original="#000000" class="" style="fill:#CFCFCF" data-old_color="#000000"/></g></g> </svg>
